<svg width="24" height="24" viewBox="0 0 24 24" fill="none" xmlns="http://www.w3.org/2000/svg">
<g clip-path="url(#clip0_1898_330)">
<path d="M10.0875 7.99275L8.23164 6.1365C8.16132 6.0662 8.06595 6.0267 7.96652 6.0267C7.86708 6.0267 7.77172 6.0662 7.70139 6.1365L6.90564 6.93187C6.80118 7.03636 6.67715 7.11924 6.54064 7.17579C6.40414 7.23234 6.25783 7.26145 6.11008 7.26145C5.96233 7.26145 5.81602 7.23234 5.67952 7.17579C5.54301 7.11924 5.41899 7.03636 5.31452 6.93187L5.22377 6.84112C5.11928 6.73665 5.0364 6.61263 4.97985 6.47612C4.9233 6.33962 4.8942 6.19331 4.8942 6.04556C4.8942 5.89781 4.9233 5.7515 4.97985 5.615C5.0364 5.47849 5.11928 5.35447 5.22377 5.25L6.01914 4.45425C6.08945 4.38393 6.12894 4.28856 6.12894 4.18912C6.12894 4.08969 6.08945 3.99432 6.01914 3.924L4.16252 2.06812C4.0922 1.99782 3.99683 1.95833 3.89739 1.95833C3.79796 1.95833 3.70259 1.99782 3.63227 2.06812L2.83689 2.8635C2.20487 3.49692 1.84991 4.35519 1.84991 5.25C1.84991 6.14481 2.20487 7.00308 2.83689 7.6365L4.51877 9.31837C5.15219 9.9504 6.01046 10.3054 6.90527 10.3054C7.80008 10.3054 8.65835 9.9504 9.29177 9.31837L10.0875 8.523C10.1578 8.45268 10.1973 8.35731 10.1973 8.25787C10.1973 8.15844 10.1578 8.06307 10.0875 7.99275ZM7.96652 6.93187L9.29214 8.25787L9.02702 8.523L7.70139 7.197L7.96652 6.93187ZM3.89777 2.8635L5.22339 4.18912L4.95827 4.45462L3.63227 3.12862L3.89777 2.8635ZM5.04902 8.7885L3.36714 7.10625C2.92157 6.65945 2.65152 6.06733 2.60629 5.43795C2.56106 4.80857 2.74366 4.18392 3.12077 3.678L4.45427 5.0115C4.2166 5.37232 4.11059 5.80404 4.15411 6.23391C4.19762 6.66377 4.38799 7.0655 4.69314 7.37137L4.78389 7.46212C5.08988 7.76709 5.49158 7.95733 5.92139 8.00084C6.3512 8.04434 6.78288 7.93846 7.14377 7.701L8.47727 9.0345C7.97132 9.41153 7.34668 9.59408 6.71733 9.54885C6.08797 9.50362 5.49585 9.23362 5.04902 8.78812V8.7885Z" fill="#8B0000"/>
<path d="M10.125 12H1.875C1.57663 12 1.29048 11.8815 1.0795 11.6705C0.868526 11.4595 0.75 11.1734 0.75 10.875V1.875C0.75 1.57663 0.868526 1.29048 1.0795 1.0795C1.29048 0.868526 1.57663 0.75 1.875 0.75H10.125C10.4234 0.75 10.7095 0.868526 10.9205 1.0795C11.1315 1.29048 11.25 1.57663 11.25 1.875V10.875C11.25 11.1734 11.1315 11.4595 10.9205 11.6705C10.7095 11.8815 10.4234 12 10.125 12ZM1.875 1.5C1.77554 1.5 1.68016 1.53951 1.60984 1.60984C1.53951 1.68016 1.5 1.77554 1.5 1.875V10.875C1.5 10.9745 1.53951 11.0698 1.60984 11.1402C1.68016 11.2105 1.77554 11.25 1.875 11.25H10.125C10.2245 11.25 10.3198 11.2105 10.3902 11.1402C10.4605 11.0698 10.5 10.9745 10.5 10.875V1.875C10.5 1.77554 10.4605 1.68016 10.3902 1.60984C10.3198 1.53951 10.2245 1.5 10.125 1.5H1.875ZM10.125 23.25H1.875C1.57663 23.25 1.29048 23.1315 1.0795 22.9205C0.868526 22.7095 0.75 22.4234 0.75 22.125V13.875C0.75 13.5766 0.868526 13.2905 1.0795 13.0795C1.29048 12.8685 1.57663 12.75 1.875 12.75H10.125C10.4234 12.75 10.7095 12.8685 10.9205 13.0795C11.1315 13.2905 11.25 13.5766 11.25 13.875V22.125C11.25 22.4234 11.1315 22.7095 10.9205 22.9205C10.7095 23.1315 10.4234 23.25 10.125 23.25ZM1.875 13.5C1.77554 13.5 1.68016 13.5395 1.60984 13.6098C1.53951 13.6802 1.5 13.7755 1.5 13.875V22.125C1.5 22.2245 1.53951 22.3198 1.60984 22.3902C1.68016 22.4605 1.77554 22.5 1.875 22.5H10.125C10.2245 22.5 10.3198 22.4605 10.3902 22.3902C10.4605 22.3198 10.5 22.2245 10.5 22.125V13.875C10.5 13.7755 10.4605 13.6802 10.3902 13.6098C10.3198 13.5395 10.2245 13.5 10.125 13.5H1.875Z" fill="#8B0000"/>
<path d="M9.375 15.375H2.625C2.52554 15.375 2.43016 15.4145 2.35984 15.4848C2.28951 15.5552 2.25 15.6505 2.25 15.75V20.25C2.25 20.3495 2.28951 20.4448 2.35984 20.5152C2.43016 20.5855 2.52554 20.625 2.625 20.625H9.375C9.47446 20.625 9.56984 20.5855 9.64017 20.5152C9.71049 20.4448 9.75 20.3495 9.75 20.25V15.75C9.75 15.6505 9.71049 15.5552 9.64017 15.4848C9.56984 15.4145 9.47446 15.375 9.375 15.375ZM6 18.2438L3.612 16.125H8.38725L6 18.2438ZM4.59975 18.0034L3 19.4175V16.5844L4.59975 18.0034ZM5.1645 18.5047L5.502 18.8048C5.63911 18.929 5.81743 18.998 6.00245 18.9983C6.18748 18.9987 6.36605 18.9304 6.50362 18.8066L6.84113 18.5066L8.38538 19.875H3.61462L5.1645 18.5047ZM7.404 18.0034L9 16.5844V19.4175L7.404 18.0034ZM22.125 0.75H13.875C13.5766 0.75 13.2905 0.868526 13.0795 1.0795C12.8685 1.29048 12.75 1.57663 12.75 1.875V10.875C12.75 11.1734 12.8685 11.4595 13.0795 11.6705C13.2905 11.8815 13.5766 12 13.875 12H15.75V16.7017L15.3113 15.7721C15.2301 15.4977 15.0462 15.2652 14.7979 15.123C14.5389 14.9736 14.2313 14.9331 13.9425 15.0105L13.5971 15.1035C13.4986 15.1301 13.4065 15.1765 13.3265 15.2399C13.2465 15.3032 13.1803 15.3823 13.1319 15.4722C13.0835 15.562 13.054 15.6608 13.0452 15.7625C13.0363 15.8642 13.0483 15.9666 13.0804 16.0635L14.6456 20.61C14.6607 20.6539 14.6838 20.6946 14.7139 20.73L15.7297 21.93L15.75 22.8829C15.7521 22.981 15.7925 23.0743 15.8626 23.143C15.9327 23.2116 16.0269 23.25 16.125 23.25H21.375C21.4745 23.25 21.5698 23.2105 21.6402 23.1402C21.7105 23.0698 21.75 22.9745 21.75 22.875V21.8625L22.437 20.832C22.4778 20.7706 22.4997 20.6987 22.5 20.625V15.75C22.5011 15.603 22.4727 15.4573 22.4164 15.3215C22.3601 15.1857 22.277 15.0626 22.1722 14.9595C22.016 14.8055 21.8188 14.6995 21.6041 14.6541C21.3894 14.6088 21.1662 14.626 20.961 14.7037C20.9112 14.5159 20.8114 14.3451 20.6722 14.2095C20.5159 14.0555 20.3187 13.9496 20.1041 13.9043C19.8894 13.8589 19.6662 13.8761 19.461 13.9537C19.4112 13.7659 19.3114 13.5951 19.1722 13.4595C19.0212 13.3101 18.8315 13.2057 18.6245 13.1579C18.4175 13.1102 18.2012 13.121 18 13.1891V12H22.125C22.4234 12 22.7095 11.8815 22.9205 11.6705C23.1315 11.4595 23.25 11.1734 23.25 10.875V1.875C23.25 1.57663 23.1315 1.29048 22.9205 1.0795C22.7095 0.868526 22.4234 0.75 22.125 0.75ZM18.375 13.875C18.425 13.8748 18.4745 13.8849 18.5204 13.9047C18.5663 13.9244 18.6077 13.9534 18.642 13.9897C18.6766 14.0236 18.7041 14.0641 18.7226 14.1088C18.7412 14.1536 18.7505 14.2016 18.75 14.25V16.875C18.75 16.9745 18.7895 17.0698 18.8598 17.1402C18.9302 17.2105 19.0255 17.25 19.125 17.25C19.2245 17.25 19.3198 17.2105 19.3902 17.1402C19.4605 17.0698 19.5 16.9745 19.5 16.875V15C19.5 14.9005 19.5395 14.8052 19.6098 14.7348C19.6802 14.6645 19.7755 14.625 19.875 14.625C19.925 14.6248 19.9745 14.6349 20.0204 14.6547C20.0663 14.6744 20.1077 14.7034 20.142 14.7397C20.1766 14.7736 20.2041 14.8141 20.2226 14.8588C20.2412 14.9036 20.2505 14.9516 20.25 15V16.875C20.25 16.9745 20.2895 17.0698 20.3598 17.1402C20.4302 17.2105 20.5255 17.25 20.625 17.25C20.7245 17.25 20.8198 17.2105 20.8902 17.1402C20.9605 17.0698 21 16.9745 21 16.875V15.75C21 15.6505 21.0395 15.5552 21.1098 15.4848C21.1802 15.4145 21.2755 15.375 21.375 15.375C21.425 15.3748 21.4745 15.3849 21.5204 15.4047C21.5663 15.4244 21.6077 15.4534 21.642 15.4897C21.6766 15.5236 21.7041 15.5641 21.7226 15.6088C21.7412 15.6536 21.7505 15.7016 21.75 15.75V20.5125L21.063 21.543C21.0222 21.6044 21.0003 21.6763 21 21.75V22.5H16.4921L16.4767 21.7796C16.4751 21.6935 16.4438 21.6106 16.3883 21.5449L15.3315 20.2976L13.7921 15.825L14.1349 15.7327C14.2321 15.7068 14.3356 15.7203 14.4229 15.7703C14.4652 15.7944 14.5024 15.8267 14.5321 15.8653C14.5619 15.904 14.5836 15.9481 14.5961 15.9952C14.6018 16.0174 15.786 18.5314 15.786 18.5314C15.8223 18.6081 15.8835 18.6702 15.9596 18.7076C16.0358 18.7451 16.1224 18.7556 16.2052 18.7374C16.2881 18.7193 16.3624 18.6735 16.4159 18.6077C16.4695 18.5419 16.4991 18.4598 16.5 18.375V10.917C16.496 10.8179 16.5283 10.7208 16.591 10.644C16.6537 10.5672 16.7423 10.516 16.8401 10.5C16.8957 10.4944 16.9518 10.5017 17.0041 10.5212C17.0565 10.5407 17.1036 10.5719 17.142 10.6125C17.1769 10.6466 17.2045 10.6875 17.2231 10.7326C17.2416 10.7778 17.2508 10.8262 17.25 10.875V16.875C17.25 16.9745 17.2895 17.0698 17.3598 17.1402C17.4302 17.2105 17.5255 17.25 17.625 17.25C17.7245 17.25 17.8198 17.2105 17.8902 17.1402C17.9605 17.0698 18 16.9745 18 16.875V14.25C18 14.1505 18.0395 14.0552 18.1098 13.9848C18.1802 13.9145 18.2755 13.875 18.375 13.875ZM22.5 10.875C22.5 10.9745 22.4605 11.0698 22.3902 11.1402C22.3198 11.2105 22.2245 11.25 22.125 11.25H18V10.875C18.0011 10.728 17.9727 10.5823 17.9164 10.4465C17.8601 10.3107 17.777 10.1876 17.6722 10.0845C17.5569 9.96647 17.4167 9.87559 17.2619 9.81845C17.1071 9.76131 16.9415 9.73934 16.7771 9.75412C16.492 9.78561 16.2288 9.92216 16.0389 10.1372C15.849 10.3522 15.746 10.6302 15.75 10.917V11.25H13.875C13.7755 11.25 13.6802 11.2105 13.6098 11.1402C13.5395 11.0698 13.5 10.9745 13.5 10.875V1.875C13.5 1.77554 13.5395 1.68016 13.6098 1.60984C13.6802 1.53951 13.7755 1.5 13.875 1.5H22.125C22.2245 1.5 22.3198 1.53951 22.3902 1.60984C22.4605 1.68016 22.5 1.77554 22.5 1.875V10.875Z" fill="#8B0000"/>
<path d="M18 3C17.2044 3 16.4413 3.31607 15.8787 3.87868C15.3161 4.44129 15 5.20435 15 6C15 6.79565 15.3161 7.55871 15.8787 8.12132C16.4413 8.68393 17.2044 9 18 9H19.5C19.5995 9 19.6948 8.96049 19.7652 8.89017C19.8355 8.81984 19.875 8.72446 19.875 8.625C19.875 8.52554 19.8355 8.43016 19.7652 8.35983C19.6948 8.28951 19.5995 8.25 19.5 8.25H18C17.555 8.25 17.12 8.11804 16.75 7.87081C16.38 7.62357 16.0916 7.27217 15.9213 6.86104C15.751 6.4499 15.7064 5.9975 15.7932 5.56105C15.88 5.12459 16.0943 4.72368 16.409 4.40901C16.7237 4.09434 17.1246 3.88005 17.561 3.79323C17.9975 3.70642 18.4499 3.75097 18.861 3.92127C19.2722 4.09157 19.6236 4.37996 19.8708 4.74997C20.118 5.11998 20.25 5.55499 20.25 6V6.375C20.25 6.47446 20.2105 6.56984 20.1402 6.64017C20.0698 6.71049 19.9745 6.75 19.875 6.75C19.7755 6.75 19.6802 6.71049 19.6098 6.64017C19.5395 6.56984 19.5 6.47446 19.5 6.375V6C19.5028 5.65193 19.3855 5.31354 19.1679 5.04191C18.9502 4.77028 18.6455 4.58205 18.3052 4.50898C17.9649 4.4359 17.6097 4.48246 17.2998 4.64079C16.9898 4.79912 16.7439 5.05953 16.6036 5.37808C16.4633 5.69664 16.4372 6.05383 16.5296 6.38941C16.6221 6.72498 16.8275 7.01839 17.1112 7.22012C17.3948 7.42186 17.7394 7.51957 18.0867 7.49678C18.434 7.47398 18.7629 7.33208 19.0178 7.095C19.1651 7.27266 19.3638 7.40046 19.5866 7.46091C19.8093 7.52136 20.0453 7.51151 20.2623 7.4327C20.4793 7.3539 20.6666 7.20999 20.7986 7.02066C20.9307 6.83133 21.001 6.60583 21 6.375V6C20.9991 5.20462 20.6827 4.44208 20.1203 3.87967C19.5579 3.31725 18.7954 3.00089 18 3ZM18 6.75C17.8517 6.75 17.7067 6.70601 17.5833 6.6236C17.46 6.54119 17.3639 6.42406 17.3071 6.28701C17.2503 6.14997 17.2355 5.99917 17.2644 5.85368C17.2933 5.7082 17.3648 5.57456 17.4697 5.46967C17.5746 5.36478 17.7082 5.29335 17.8537 5.26441C17.9992 5.23547 18.15 5.25032 18.287 5.30709C18.4241 5.36386 18.5412 5.45999 18.6236 5.58332C18.706 5.70666 18.75 5.85166 18.75 6C18.75 6.19891 18.671 6.38968 18.5303 6.53033C18.3897 6.67098 18.1989 6.75 18 6.75Z" fill="#8B0000"/>
</g>
<defs>
<clipPath id="clip0_1898_330">
<rect width="24" height="24" fill="white"/>
</clipPath>
</defs>
</svg>
