<svg width="22" height="24" viewBox="0 0 22 24" fill="none" xmlns="http://www.w3.org/2000/svg">
<path d="M21.6992 11.2381C21.6137 10.9522 21.4181 10.7121 21.1556 10.5704C20.893 10.4288 20.5849 10.3972 20.299 10.4827L10.2397 13.4924C10.1839 13.5092 10.1328 13.5386 10.0904 13.5785L8.86823 14.7269C8.81748 14.7746 8.781 14.8355 8.7629 14.9027C8.74479 14.97 8.74577 15.0409 8.76572 15.1076C8.78567 15.1744 8.82381 15.2342 8.87586 15.2805C8.92791 15.3267 8.99182 15.3576 9.06042 15.3696L10.7124 15.6582C10.7698 15.6682 10.8287 15.6647 10.8845 15.648L19.0467 13.2058L19.0821 13.9781L16.4885 14.7541L16.7034 15.4727L19.5775 14.6127C19.6577 14.5887 19.7275 14.5387 19.7759 14.4705C19.8243 14.4023 19.8485 14.3199 19.8447 14.2363L19.7874 12.9846L20.9439 12.6386C21.2298 12.553 21.4699 12.3575 21.6116 12.0949C21.7532 11.8323 21.7848 11.5242 21.6992 11.2383V11.2381ZM10.7544 14.9042L9.92836 14.7599L10.5394 14.1856L12.2509 13.6737L12.4659 14.3922L10.7544 14.9042ZM13.1844 14.1771L12.9694 13.4586L18.9761 11.6614L19.0114 12.4337L13.1844 14.1771ZM20.9516 11.7385C20.9283 11.7819 20.8966 11.8203 20.8584 11.8514C20.8202 11.8825 20.7763 11.9058 20.729 11.9198L19.7521 12.2121L19.7167 11.4398L20.514 11.2012C20.5851 11.18 20.6609 11.1803 20.7317 11.2021C20.8026 11.2239 20.8655 11.2662 20.9123 11.3237C20.9591 11.3812 20.9879 11.4513 20.9949 11.5252C21.0018 11.599 20.9868 11.6732 20.9516 11.7385Z" fill="#8B0000"/>
<path d="M14 16.5H7.625V10.875C7.625 10.7755 7.58549 10.6802 7.51517 10.6098C7.44484 10.5395 7.34946 10.5 7.25 10.5H0.5C0.400544 10.5 0.305161 10.5395 0.234835 10.6098C0.164509 10.6802 0.125 10.7755 0.125 10.875V22.875C0.125 22.9745 0.164509 23.0698 0.234835 23.1402C0.305161 23.2105 0.400544 23.25 0.5 23.25H14C14.0995 23.25 14.1948 23.2105 14.2652 23.1402C14.3355 23.0698 14.375 22.9745 14.375 22.875V16.875C14.375 16.7755 14.3355 16.6802 14.2652 16.6098C14.1948 16.5395 14.0995 16.5 14 16.5ZM9.875 17.25H11.375V18.75H9.875V17.25ZM3.125 11.25H4.625V12.75H3.125V11.25ZM0.875 11.25H2.375V13.125C2.375 13.2245 2.41451 13.3198 2.48484 13.3902C2.55516 13.4605 2.65054 13.5 2.75 13.5H5C5.09946 13.5 5.19484 13.4605 5.26517 13.3902C5.33549 13.3198 5.375 13.2245 5.375 13.125V11.25H6.875V16.5H0.875V11.25ZM3.125 17.25H4.625V18.75H3.125V17.25ZM0.875 17.25H2.375V19.125C2.375 19.2245 2.41451 19.3198 2.48484 19.3902C2.55516 19.4605 2.65054 19.5 2.75 19.5H5C5.09946 19.5 5.19484 19.4605 5.26517 19.3902C5.33549 19.3198 5.375 19.2245 5.375 19.125V17.25H6.875V22.5H0.875V17.25ZM13.625 22.5H7.625V17.25H9.125V19.125C9.125 19.2245 9.16451 19.3198 9.23483 19.3902C9.30516 19.4605 9.40054 19.5 9.5 19.5H11.75C11.8495 19.5 11.9448 19.4605 12.0152 19.3902C12.0855 19.3198 12.125 19.2245 12.125 19.125V17.25H13.625V22.5Z" fill="#8B0000"/>
<path d="M12.125 21H12.875V21.75H12.125V21ZM5.375 21H6.125V21.75H5.375V21ZM5.375 15H6.125V15.75H5.375V15ZM6.125 3.75C6.12524 3.55116 6.20433 3.36053 6.34493 3.21993C6.48553 3.07933 6.67616 3.00024 6.875 3H9.125V3.75H7.25C7.15054 3.75 7.05516 3.78951 6.98483 3.85984C6.91451 3.93016 6.875 4.02554 6.875 4.125V9.75H7.625V4.5H16.625V10.5H17.375V4.125C17.375 4.02554 17.3355 3.93016 17.2652 3.85984C17.1948 3.78951 17.0995 3.75 17 3.75H15.125V3H17.375C17.5738 3.00024 17.7645 3.07933 17.9051 3.21993C18.0457 3.36053 18.1248 3.55116 18.125 3.75V10.125H18.875V3.75C18.8746 3.35231 18.7164 2.97104 18.4352 2.68983C18.154 2.40863 17.7727 2.25045 17.375 2.25H13.7303L13.9888 1.21594C14.0026 1.16065 14.0037 1.10295 13.9918 1.0472C13.98 0.991454 13.9556 0.939135 13.9206 0.894219C13.8855 0.849303 13.8407 0.81297 13.7894 0.78798C13.7382 0.76299 13.682 0.750002 13.625 0.75H10.625C10.568 0.750002 10.5118 0.76299 10.4606 0.78798C10.4093 0.81297 10.3645 0.849303 10.3294 0.894219C10.2944 0.939135 10.27 0.991454 10.2582 1.0472C10.2463 1.10295 10.2474 1.16065 10.2612 1.21594L10.5197 2.25H6.875C6.47731 2.25045 6.09604 2.40863 5.81483 2.68983C5.53363 2.97104 5.37545 3.35231 5.375 3.75V9.75H6.125V3.75ZM9.875 3H11C11.057 3 11.1132 2.98701 11.1644 2.96202C11.2157 2.93703 11.2605 2.9007 11.2956 2.85578C11.3306 2.81086 11.355 2.75855 11.3668 2.7028C11.3787 2.64705 11.3776 2.58935 11.3638 2.53406L11.1053 1.5H13.1447L12.8862 2.53406C12.8724 2.58935 12.8713 2.64705 12.8832 2.7028C12.895 2.75855 12.9194 2.81086 12.9544 2.85578C12.9895 2.9007 13.0343 2.93703 13.0856 2.96202C13.1368 2.98701 13.193 3 13.25 3H14.375V3.75H9.875V3ZM18.125 19.125C18.1248 19.3238 18.0457 19.5145 17.9051 19.6551C17.7645 19.7957 17.5738 19.8748 17.375 19.875H15.125V20.625H17.375C17.7727 20.6246 18.154 20.4664 18.4352 20.1852C18.7164 19.904 18.8746 19.5227 18.875 19.125V15.75H18.125V19.125Z" fill="#8B0000"/>
<path d="M17.375 18.75V16.125H16.625V18.375H15.125V19.125H17C17.0995 19.125 17.1948 19.0855 17.2652 19.0152C17.3355 18.9448 17.375 18.8495 17.375 18.75ZM10.625 5.625C10.625 5.52554 10.5855 5.43016 10.5152 5.35984C10.4448 5.28951 10.3495 5.25 10.25 5.25H8.75C8.65054 5.25 8.55516 5.28951 8.48483 5.35984C8.41451 5.43016 8.375 5.52554 8.375 5.625V7.125C8.375 7.22446 8.41451 7.31984 8.48483 7.39017C8.55516 7.46049 8.65054 7.5 8.75 7.5H10.25C10.3495 7.5 10.4448 7.46049 10.5152 7.39017C10.5855 7.31984 10.625 7.22446 10.625 7.125V5.625ZM9.875 6.75H9.125V6H9.875V6.75ZM10.25 8.625H8.75C8.65054 8.625 8.55516 8.66451 8.48483 8.73483C8.41451 8.80516 8.375 8.90054 8.375 9V10.5C8.375 10.5995 8.41451 10.6948 8.48483 10.7652C8.55516 10.8355 8.65054 10.875 8.75 10.875H10.25C10.3495 10.875 10.4448 10.8355 10.5152 10.7652C10.5855 10.6948 10.625 10.5995 10.625 10.5V9C10.625 8.90054 10.5855 8.80516 10.5152 8.73483C10.4448 8.66451 10.3495 8.625 10.25 8.625ZM9.875 10.125H9.125V9.375H9.875V10.125ZM11.375 5.25H12.125V6H11.375V5.25ZM11.375 6.75H15.875V7.5H11.375V6.75ZM12.875 5.25H15.875V6H12.875V5.25ZM11.375 8.625H12.125V9.375H11.375V8.625ZM11.375 10.125H15.875V10.875H11.375V10.125ZM12.875 8.625H15.875V9.375H12.875V8.625Z" fill="#8B0000"/>
</svg>
