<svg width="24" height="24" viewBox="0 0 24 24" fill="none" xmlns="http://www.w3.org/2000/svg">
<path d="M6.64566 23.0625H2.8125C1.77698 23.0625 0.9375 22.223 0.9375 21.1875V2.8125C0.9375 1.77698 1.77698 0.9375 2.8125 0.9375H11.8125C12.3302 0.9375 12.799 1.14736 13.1383 1.48669L15.0133 3.36169C15.3526 3.70097 15.5625 4.16972 15.5625 4.6875V9.85214M4.6875 8.0625H11.8125M4.6875 11.8125H11.8125M4.6875 15.5625H8.0625M19.8617 10.8555C20.5939 10.1232 21.7811 10.1232 22.5133 10.8555C23.2455 11.5877 23.2455 12.7749 22.5133 13.5071L14.7634 21.257C14.6275 21.3929 14.4716 21.5071 14.301 21.5956L11.6754 22.9575C11.3223 23.1407 10.8772 23.0842 10.5809 22.7879C10.2846 22.4917 10.2281 22.0465 10.4112 21.6934L11.7732 19.0678C11.8617 18.8972 11.9759 18.7412 12.1118 18.6053L19.8617 10.8555Z" stroke="#8B0000" stroke-width="1.875" stroke-miterlimit="10" stroke-linecap="round" stroke-linejoin="round"/>
</svg>
